<svg t="1706841732433" class="icon" viewBox="0 0 1024 1024" version="1.1" xmlns="http://www.w3.org/2000/svg" p-id="8341" width="200" height="200"><path d="M839.74 959.32h-651.9a81.49 81.49 0 0 1-81.48-81.49v-651.9a81.48 81.48 0 0 1 81.48-81.48h651.9a81.49 81.49 0 0 1 81.49 81.48v651.9a81.5 81.5 0 0 1-81.49 81.49zM835 877.83v-651.9H192.64v651.9z"  p-id="8342"></path><path d="M269.33 62.96m40.74 0l0.01 0q40.74 0 40.74 40.74l0 162.98q0 40.74-40.74 40.74l-0.01 0q-40.74 0-40.74-40.74l0-162.98q0-40.74 40.74-40.74Z"  p-id="8343"></path><path d="M473.05 62.96m40.74 0l0.01 0q40.74 0 40.74 40.74l0 162.98q0 40.74-40.74 40.74l-0.01 0q-40.74 0-40.74-40.74l0-162.98q0-40.74 40.74-40.74Z"  p-id="8344"></path><path d="M676.77 62.96m40.74 0l0.01 0q40.74 0 40.74 40.74l0 162.98q0 40.74-40.74 40.74l-0.01 0q-40.74 0-40.74-40.74l0-162.98q0-40.74 40.74-40.74Z"  p-id="8345"></path><path d="M269.33 388.91m40.74 0l407.44 0q40.74 0 40.74 40.74l0 0.01q0 40.74-40.74 40.74l-407.44 0q-40.74 0-40.74-40.74l0-0.01q0-40.74 40.74-40.74Z"  p-id="8346"></path><path d="M269.33 551.88m40.74 0l407.44 0q40.74 0 40.74 40.74l0 0.01q0 40.74-40.74 40.74l-407.44 0q-40.74 0-40.74-40.74l0-0.01q0-40.74 40.74-40.74Z"  p-id="8347"></path><path d="M269.33 714.86m40.74 0l407.44 0q40.74 0 40.74 40.74l0 0.01q0 40.74-40.74 40.74l-407.44 0q-40.74 0-40.74-40.74l0-0.01q0-40.74 40.74-40.74Z"  p-id="8348"></path></svg>