<?xml version="1.0" standalone="no"?><!DOCTYPE svg PUBLIC "-//W3C//DTD SVG 1.1//EN" "http://www.w3.org/Graphics/SVG/1.1/DTD/svg11.dtd"><svg t="1706843648104" class="icon" viewBox="0 0 1024 1024" version="1.1" xmlns="http://www.w3.org/2000/svg" p-id="9346" xmlns:xlink="http://www.w3.org/1999/xlink" width="200" height="200"><path d="M239.052514 443.562305c0 31.136138 25.251104 56.386218 56.385195 56.386218s56.385195-25.251104 56.385195-56.386218c0-31.148417-25.251104-56.385195-56.385195-56.385195C264.302595 387.176087 239.052514 412.412864 239.052514 443.562305zM266.676665 443.452811c0-15.910365 12.906961-28.816303 28.817326-28.816303 15.923668 0 28.830629 12.906961 28.830629 28.816303 0 15.923668-12.905938 28.816303-28.830629 28.816303C279.582603 472.269114 266.675642 459.376479 266.676665 443.452811zM660.401912 443.562305c0 31.136138 25.251104 56.386218 56.386218 56.386218s56.371892-25.251104 56.371892-56.386218c0-31.148417-25.236777-56.385195-56.371892-56.385195S660.401912 412.412864 660.401912 443.562305zM688.026062 443.452811c0-15.910365 12.906961-28.816303 28.816303-28.816303s28.830629 12.906961 28.830629 28.816303c0 15.923668-12.920264 28.816303-28.830629 28.816303S688.026062 459.376479 688.026062 443.452811zM113.045659 195.086164l0 510.146792c0 25.853831 20.944008 46.797839 46.797839 46.797839l499.694743 0 113.182782 122.660644L772.721023 752.030795l93.665263 0c25.854854 0 46.797839-20.945031 46.797839-46.797839L913.184125 195.086164c0-25.840528-20.944008-46.797839-46.797839-46.797839L159.843498 148.288325C133.989667 148.288325 113.044636 169.245635 113.045659 195.086164zM140.475382 700.404997 140.475382 199.585641c0-13.181207 10.698666-23.87885 23.893176-23.87885l696.887894 0c13.19451 0 23.87885 10.697643 23.87885 23.87885L885.135302 700.404997c0 13.19451-10.68434 23.87885-23.87885 23.87885L744.810347 724.283848l0 82.0886-76.767408-82.0886L164.370605 724.283848C151.175071 724.284871 140.476405 713.599508 140.475382 700.404997L140.475382 700.404997zM449.727725 443.562305c0 31.136138 25.251104 56.386218 56.385195 56.386218 31.135114 0 56.385195-25.251104 56.385195-56.386218 0-31.148417-25.251104-56.385195-56.385195-56.385195C474.977805 387.176087 449.727725 412.412864 449.727725 443.562305zM477.351875 443.452811c0-15.910365 12.905938-28.816303 28.816303-28.816303s28.830629 12.906961 28.830629 28.816303c0 15.923668-12.920264 28.816303-28.830629 28.816303C490.257813 472.269114 477.350852 459.376479 477.351875 443.452811z" p-id="9347"></path></svg>