<?xml version="1.0" standalone="no"?><!DOCTYPE svg PUBLIC "-//W3C//DTD SVG 1.1//EN" "http://www.w3.org/Graphics/SVG/1.1/DTD/svg11.dtd"><svg t="1707028913984" class="icon" viewBox="0 0 1024 1024" version="1.1" xmlns="http://www.w3.org/2000/svg" p-id="4205" xmlns:xlink="http://www.w3.org/1999/xlink" width="200" height="200"><path d="M504.67 144.17H95.44c-17.67 0-32 14.33-32 32s14.33 32 32 32h409.22c17.67 0 32-14.33 32-32s-14.32-32-31.99-32zM505.17 470.69H95.44c-17.67 0-32 14.33-32 32s14.33 32 32 32h409.73c17.67 0 32-14.33 32-32s-14.33-32-32-32zM505.17 799.22H95.94c-17.67 0-32 14.33-32 32s14.33 32 32 32h409.22c17.67 0 32-14.33 32-32 0.01-17.68-14.32-32-31.99-32zM789.5 206c-17.67 0-32 14.33-32 32v615.22c0 17.67 14.33 32 32 32s32-14.33 32-32V238c0-17.67-14.33-32-32-32z" p-id="4206"></path><path d="M805.31 127.89l142.26 153.73c13.75 14.86 13.92 39.13 0.36 54.22-13.55 15.08-35.69 15.26-49.44 0.4L789.87 218.86 680.42 336.4c-13.79 14.82-35.93 14.56-49.44-0.56-13.51-15.13-13.28-39.4 0.51-54.21l143.19-153.78c8.52-9.15 22.14-9.13 30.63 0.04z" p-id="4207"></path></svg>