<?xml version="1.0" standalone="no"?><!DOCTYPE svg PUBLIC "-//W3C//DTD SVG 1.1//EN" "http://www.w3.org/Graphics/SVG/1.1/DTD/svg11.dtd"><svg t="1707028924412" class="icon" viewBox="0 0 1024 1024" version="1.1" xmlns="http://www.w3.org/2000/svg" p-id="5172" xmlns:xlink="http://www.w3.org/1999/xlink" width="200" height="200"><path d="M504.67 144.17H95.44c-17.67 0-32 14.33-32 32s14.33 32 32 32h409.22c17.67 0 32-14.33 32-32s-14.32-32-31.99-32zM789.5 121c-17.67 0-32 14.33-32 32v615.22c0 17.67 14.33 32 32 32s32-14.33 32-32V153c0-17.67-14.33-32-32-32zM505.17 470.69H95.44c-17.67 0-32 14.33-32 32s14.33 32 32 32h409.73c17.67 0 32-14.33 32-32s-14.33-32-32-32zM505.17 799.22H95.94c-17.67 0-32 14.33-32 32s14.33 32 32 32h409.22c17.67 0 32-14.33 32-32 0.01-17.68-14.32-32-31.99-32z" p-id="5173"></path><path d="M773.68 878.32L631.42 724.59c-13.75-14.86-13.92-39.13-0.36-54.22 13.55-15.08 35.69-15.26 49.44-0.4l108.63 117.38L898.58 669.8c13.79-14.82 35.93-14.56 49.44 0.56 13.51 15.13 13.28 39.4-0.51 54.21l-143.2 153.8c-8.51 9.15-22.14 9.12-30.63-0.05z" p-id="5174"></path></svg>