<?xml version="1.0" standalone="no"?><!DOCTYPE svg PUBLIC "-//W3C//DTD SVG 1.1//EN" "http://www.w3.org/Graphics/SVG/1.1/DTD/svg11.dtd"><svg t="1702352665856" class="icon" viewBox="0 0 1024 1024" version="1.1" xmlns="http://www.w3.org/2000/svg" p-id="14786" xmlns:xlink="http://www.w3.org/1999/xlink" width="200" height="200"><path d="M276.053333 532.48h7.253334a32 32 0 0 0 0-64h-7.253334a32 32 0 1 0 0 64zM507.733333 532.48h7.253334a32 32 0 0 0 0-64h-7.253334a32 32 0 1 0 0 64zM738.986667 532.48h7.253333a32 32 0 0 0 0-64h-7.253333a32 32 0 0 0 0 64zM276.053333 682.666667h7.253334a32 32 0 1 0 0-64h-7.253334a32 32 0 1 0 0 64zM507.733333 682.666667h7.253334a32 32 0 0 0 0-64h-7.253334a32 32 0 1 0 0 64zM738.986667 682.666667h7.253333a32 32 0 0 0 0-64h-7.253333a32 32 0 1 0 0 64zM276.053333 834.986667h7.253334a32 32 0 1 0 0-64h-7.253334a32 32 0 1 0 0 64zM507.733333 834.986667h7.253334a32 32 0 0 0 0-64h-7.253334a32 32 0 0 0 0 64zM738.986667 834.986667h7.253333a32 32 0 0 0 0-64h-7.253333a32 32 0 0 0 0 64z" fill="" p-id="14787"></path><path d="M938.666667 128h-106.666667V68.266667a32 32 0 0 0-64 0V128H256V68.266667a32 32 0 0 0-64 0V128H82.346667a32 32 0 0 0-32 32v797.866667a32 32 0 0 0 32 32H938.666667a32 32 0 0 0 32-32V157.866667A32 32 0 0 0 938.666667 128z m-30.72 797.866667H114.346667V358.4h793.6z m0-631.466667H114.346667V189.866667h75.946666V247.466667A32 32 0 0 0 256 247.466667V189.866667h512V247.466667a32 32 0 0 0 64 0V189.866667h75.946667z" fill="" p-id="14788"></path></svg>